<svg viewBox="0 0 1024 1024" version="1.1" xmlns="http://www.w3.org/2000/svg" p-id="6186"
  width="16" height="16">
  <path
    d="M146.285714 950.857143a73.142857 73.142857 0 0 1-73.142857-73.142857V146.285714a73.142857 73.142857 0 0 1 73.142857-73.142857h621.714286L950.857143 256v292.571429a36.571429 36.571429 0 0 1-72.557714 6.582857L877.714286 548.571429V292.571429h-109.714286a36.571429 36.571429 0 0 1-36.571429-36.571429V146.285714H146.285714v731.428572h402.285715a36.571429 36.571429 0 0 1 6.582857 72.557714L548.571429 950.857143H146.285714z"
    fill="#ffffff" p-id="6187"></path>
  <path
    d="M806.180571 701.659429c0-21.504 15.945143-36.278857 34.011429-21.796572l166.765714 133.851429c18.139429 14.482286 18.139429 38.253714 0.073143 52.809143l-168.009143 135.168c-18.066286 14.482286-32.768 3.803429-32.768-21.723429v-68.388571h-3.072c-105.325714 0-197.046857-121.782857-198.509714-230.034286 0-8.630857 7.021714-10.971429 13.677714 0 34.084571 60.781714 89.673143 92.306286 162.669715 92.306286h25.161142zM353.28 295.716571a36.571429 36.571429 0 0 1 21.869714 41.472l-1.974857 6.290286-34.669714 84.333714 1.389714 0.146286c58.587429 6.217143 99.181714 63.414857 99.181714 120.612572a109.714286 109.714286 0 0 1-219.428571 0c0-20.772571 5.339429-41.545143 14.921143-59.830858l0.512-1.536 70.436571-171.52a36.571429 36.571429 0 0 1 47.762286-19.968z m343.259429 27.209143l0.512 6.582857v182.637715l4.388571 0.438857a36.571429 36.571429 0 0 1 29.403429 29.403428L731.428571 548.571429a36.571429 36.571429 0 0 1-29.988571 35.986285l-4.388571 0.292572V621.714286a36.571429 36.571429 0 0 1-29.988572 35.986285L660.48 658.285714a36.571429 36.571429 0 0 1-35.986286-29.988571L623.908571 621.714286v-36.644572L514.56 585.142857a36.571429 36.571429 0 0 1-33.353143-51.492571l2.925714-5.339429 145.92-219.136c18.797714-28.233143 61.220571-17.554286 66.486858 13.750857z m-367.177143 177.664c-17.92 0-36.571429 21.796571-36.571429 47.981715a36.571429 36.571429 0 1 0 73.142857 0c0-26.185143-18.651429-47.981714-36.571428-47.981715z m294.546285-50.249143L582.875429 512l41.033142-0.073143v-61.586286z"
    fill="#ffffff" p-id="6188"></path>
</svg>